<mxfile host="app.diagrams.net" modified="2024-03-06T19:19:58.806Z" agent="Mozilla/5.0 (Macintosh; Intel Mac OS X 10_15_7) AppleWebKit/537.36 (KHTML, like Gecko) Chrome/122.0.0.0 Safari/537.36 " etag="PM0u6eItmx2SojJuhqSi" version="24.0.1" type="device">
  <diagram name="Page-1" id="3cqIkfnz9l0BO4UHjWBg">
    <mxGraphModel dx="3661" dy="1597" grid="1" gridSize="10" guides="1" tooltips="1" connect="1" arrows="1" fold="1" page="1" pageScale="1" pageWidth="850" pageHeight="1100" math="0" shadow="0">
      <root>
        <mxCell id="0" />
        <mxCell id="w3DRFHDPRYcxBytgAuA3-70" value="Untitled Layer" parent="0" />
        <mxCell id="w3DRFHDPRYcxBytgAuA3-71" value="" style="rounded=0;whiteSpace=wrap;html=1;fillColor=#FFFCF0;strokeColor=#d6b656;" vertex="1" parent="w3DRFHDPRYcxBytgAuA3-70">
          <mxGeometry x="-80" y="360" width="760" height="470" as="geometry" />
        </mxCell>
        <mxCell id="w3DRFHDPRYcxBytgAuA3-90" style="edgeStyle=orthogonalEdgeStyle;rounded=0;orthogonalLoop=1;jettySize=auto;html=1;entryX=0.5;entryY=1;entryDx=0;entryDy=0;" edge="1" parent="w3DRFHDPRYcxBytgAuA3-70" source="w3DRFHDPRYcxBytgAuA3-72" target="w3DRFHDPRYcxBytgAuA3-86">
          <mxGeometry relative="1" as="geometry">
            <Array as="points">
              <mxPoint x="-160" y="920" />
              <mxPoint x="965" y="920" />
            </Array>
          </mxGeometry>
        </mxCell>
        <mxCell id="w3DRFHDPRYcxBytgAuA3-72" value="Hidden layer" style="rounded=0;whiteSpace=wrap;html=1;fillColor=#fff2cc;strokeColor=#d6b656;" vertex="1" parent="w3DRFHDPRYcxBytgAuA3-70">
          <mxGeometry x="-220" y="470" width="120" height="60" as="geometry" />
        </mxCell>
        <mxCell id="w3DRFHDPRYcxBytgAuA3-86" value="" style="rounded=0;whiteSpace=wrap;html=1;fillColor=#e1d5e7;strokeColor=#9673a6;" vertex="1" parent="w3DRFHDPRYcxBytgAuA3-70">
          <mxGeometry x="870" y="370" width="190" height="250" as="geometry" />
        </mxCell>
        <mxCell id="w3DRFHDPRYcxBytgAuA3-87" value="2 Transformer blocks (as hidden layers)" style="rounded=0;whiteSpace=wrap;html=1;fillColor=#e1d5e7;strokeColor=#9673a6;" vertex="1" parent="w3DRFHDPRYcxBytgAuA3-70">
          <mxGeometry x="905" y="290" width="120" height="60" as="geometry" />
        </mxCell>
        <mxCell id="w3DRFHDPRYcxBytgAuA3-94" value="" style="edgeStyle=orthogonalEdgeStyle;rounded=0;orthogonalLoop=1;jettySize=auto;html=1;" edge="1" parent="w3DRFHDPRYcxBytgAuA3-70" source="w3DRFHDPRYcxBytgAuA3-88" target="w3DRFHDPRYcxBytgAuA3-91">
          <mxGeometry relative="1" as="geometry" />
        </mxCell>
        <mxCell id="w3DRFHDPRYcxBytgAuA3-88" value="Linear Layer" style="rounded=0;whiteSpace=wrap;html=1;" vertex="1" parent="w3DRFHDPRYcxBytgAuA3-70">
          <mxGeometry x="1090" y="380" width="50" height="230" as="geometry" />
        </mxCell>
        <mxCell id="w3DRFHDPRYcxBytgAuA3-95" value="" style="edgeStyle=orthogonalEdgeStyle;rounded=0;orthogonalLoop=1;jettySize=auto;html=1;" edge="1" parent="w3DRFHDPRYcxBytgAuA3-70" source="w3DRFHDPRYcxBytgAuA3-91" target="w3DRFHDPRYcxBytgAuA3-92">
          <mxGeometry relative="1" as="geometry" />
        </mxCell>
        <mxCell id="w3DRFHDPRYcxBytgAuA3-91" value="Softmax" style="rounded=0;whiteSpace=wrap;html=1;" vertex="1" parent="w3DRFHDPRYcxBytgAuA3-70">
          <mxGeometry x="1190" y="380" width="50" height="230" as="geometry" />
        </mxCell>
        <mxCell id="w3DRFHDPRYcxBytgAuA3-92" value="Output" style="rounded=0;whiteSpace=wrap;html=1;" vertex="1" parent="w3DRFHDPRYcxBytgAuA3-70">
          <mxGeometry x="1280" y="380" width="50" height="230" as="geometry" />
        </mxCell>
        <mxCell id="w3DRFHDPRYcxBytgAuA3-46" value="Untitled Layer" parent="0" />
        <mxCell id="w3DRFHDPRYcxBytgAuA3-48" value="" style="rounded=0;whiteSpace=wrap;html=1;fillColor=#dae8fc;strokeColor=#6c8ebf;" vertex="1" parent="w3DRFHDPRYcxBytgAuA3-46">
          <mxGeometry x="101" y="370" width="199" height="270" as="geometry" />
        </mxCell>
        <mxCell id="1" parent="0" />
        <mxCell id="w3DRFHDPRYcxBytgAuA3-31" value="" style="edgeStyle=orthogonalEdgeStyle;rounded=0;orthogonalLoop=1;jettySize=auto;html=1;" edge="1" parent="1" source="w3DRFHDPRYcxBytgAuA3-1" target="w3DRFHDPRYcxBytgAuA3-30">
          <mxGeometry relative="1" as="geometry" />
        </mxCell>
        <mxCell id="w3DRFHDPRYcxBytgAuA3-1" value="Softmax" style="rounded=1;whiteSpace=wrap;html=1;" vertex="1" parent="1">
          <mxGeometry x="139.91" y="246" width="120" height="30" as="geometry" />
        </mxCell>
        <mxCell id="w3DRFHDPRYcxBytgAuA3-5" value="" style="edgeStyle=orthogonalEdgeStyle;rounded=0;orthogonalLoop=1;jettySize=auto;html=1;" edge="1" parent="1" source="w3DRFHDPRYcxBytgAuA3-2" target="w3DRFHDPRYcxBytgAuA3-1">
          <mxGeometry relative="1" as="geometry" />
        </mxCell>
        <mxCell id="w3DRFHDPRYcxBytgAuA3-2" value="Linear" style="rounded=1;whiteSpace=wrap;html=1;" vertex="1" parent="1">
          <mxGeometry x="139.91" y="316" width="120" height="30" as="geometry" />
        </mxCell>
        <mxCell id="w3DRFHDPRYcxBytgAuA3-9" value="" style="edgeStyle=orthogonalEdgeStyle;rounded=0;orthogonalLoop=1;jettySize=auto;html=1;" edge="1" parent="1" source="w3DRFHDPRYcxBytgAuA3-6" target="w3DRFHDPRYcxBytgAuA3-2">
          <mxGeometry relative="1" as="geometry" />
        </mxCell>
        <mxCell id="w3DRFHDPRYcxBytgAuA3-6" value="Add &amp;amp; Norm" style="rounded=1;whiteSpace=wrap;html=1;" vertex="1" parent="1">
          <mxGeometry x="139.91" y="386" width="120" height="30" as="geometry" />
        </mxCell>
        <mxCell id="w3DRFHDPRYcxBytgAuA3-8" value="" style="edgeStyle=orthogonalEdgeStyle;rounded=0;orthogonalLoop=1;jettySize=auto;html=1;" edge="1" parent="1" source="w3DRFHDPRYcxBytgAuA3-7" target="w3DRFHDPRYcxBytgAuA3-6">
          <mxGeometry relative="1" as="geometry" />
        </mxCell>
        <mxCell id="w3DRFHDPRYcxBytgAuA3-10" style="edgeStyle=orthogonalEdgeStyle;rounded=0;orthogonalLoop=1;jettySize=auto;html=1;entryX=0;entryY=0.5;entryDx=0;entryDy=0;" edge="1" parent="1" source="w3DRFHDPRYcxBytgAuA3-7" target="w3DRFHDPRYcxBytgAuA3-6">
          <mxGeometry relative="1" as="geometry">
            <Array as="points">
              <mxPoint x="199.91" y="506" />
              <mxPoint x="119.91" y="506" />
              <mxPoint x="119.91" y="401" />
            </Array>
          </mxGeometry>
        </mxCell>
        <mxCell id="w3DRFHDPRYcxBytgAuA3-7" value="Feed Forward" style="rounded=1;whiteSpace=wrap;html=1;" vertex="1" parent="1">
          <mxGeometry x="139.91" y="456" width="120" height="30" as="geometry" />
        </mxCell>
        <mxCell id="w3DRFHDPRYcxBytgAuA3-17" value="" style="edgeStyle=orthogonalEdgeStyle;rounded=0;orthogonalLoop=1;jettySize=auto;html=1;" edge="1" parent="1" source="w3DRFHDPRYcxBytgAuA3-13" target="w3DRFHDPRYcxBytgAuA3-7">
          <mxGeometry relative="1" as="geometry" />
        </mxCell>
        <mxCell id="w3DRFHDPRYcxBytgAuA3-13" value="Add &amp;amp; Norm" style="rounded=1;whiteSpace=wrap;html=1;" vertex="1" parent="1">
          <mxGeometry x="139.91" y="526" width="120" height="30" as="geometry" />
        </mxCell>
        <mxCell id="w3DRFHDPRYcxBytgAuA3-14" value="" style="edgeStyle=orthogonalEdgeStyle;rounded=0;orthogonalLoop=1;jettySize=auto;html=1;" edge="1" source="w3DRFHDPRYcxBytgAuA3-16" target="w3DRFHDPRYcxBytgAuA3-13" parent="1">
          <mxGeometry relative="1" as="geometry" />
        </mxCell>
        <mxCell id="w3DRFHDPRYcxBytgAuA3-15" style="edgeStyle=orthogonalEdgeStyle;rounded=0;orthogonalLoop=1;jettySize=auto;html=1;entryX=0;entryY=0.5;entryDx=0;entryDy=0;" edge="1" source="w3DRFHDPRYcxBytgAuA3-16" target="w3DRFHDPRYcxBytgAuA3-13" parent="1">
          <mxGeometry relative="1" as="geometry">
            <Array as="points">
              <mxPoint x="119.91" y="611" />
              <mxPoint x="119.91" y="541" />
            </Array>
          </mxGeometry>
        </mxCell>
        <mxCell id="w3DRFHDPRYcxBytgAuA3-16" value="Multi Head attention" style="rounded=1;whiteSpace=wrap;html=1;" vertex="1" parent="1">
          <mxGeometry x="139.91" y="596" width="120" height="30" as="geometry" />
        </mxCell>
        <mxCell id="w3DRFHDPRYcxBytgAuA3-19" value="" style="edgeStyle=orthogonalEdgeStyle;rounded=0;orthogonalLoop=1;jettySize=auto;html=1;" edge="1" parent="1" source="w3DRFHDPRYcxBytgAuA3-18" target="w3DRFHDPRYcxBytgAuA3-16">
          <mxGeometry relative="1" as="geometry" />
        </mxCell>
        <mxCell id="w3DRFHDPRYcxBytgAuA3-18" value="+" style="ellipse;whiteSpace=wrap;html=1;aspect=fixed;" vertex="1" parent="1">
          <mxGeometry x="174.91" y="676" width="50" height="50" as="geometry" />
        </mxCell>
        <mxCell id="w3DRFHDPRYcxBytgAuA3-20" value="Positional&lt;div&gt;encoding&lt;/div&gt;" style="text;html=1;align=center;verticalAlign=middle;whiteSpace=wrap;rounded=0;" vertex="1" parent="1">
          <mxGeometry x="249.91" y="686" width="60" height="30" as="geometry" />
        </mxCell>
        <mxCell id="w3DRFHDPRYcxBytgAuA3-24" value="" style="endArrow=none;html=1;rounded=0;entryX=0;entryY=0.5;entryDx=0;entryDy=0;exitX=1;exitY=0.5;exitDx=0;exitDy=0;" edge="1" parent="1" source="w3DRFHDPRYcxBytgAuA3-18" target="w3DRFHDPRYcxBytgAuA3-20">
          <mxGeometry width="50" height="50" relative="1" as="geometry">
            <mxPoint x="189.91" y="616" as="sourcePoint" />
            <mxPoint x="239.91" y="566" as="targetPoint" />
          </mxGeometry>
        </mxCell>
        <mxCell id="w3DRFHDPRYcxBytgAuA3-26" value="" style="edgeStyle=orthogonalEdgeStyle;rounded=0;orthogonalLoop=1;jettySize=auto;html=1;" edge="1" parent="1" source="w3DRFHDPRYcxBytgAuA3-25" target="w3DRFHDPRYcxBytgAuA3-18">
          <mxGeometry relative="1" as="geometry" />
        </mxCell>
        <mxCell id="w3DRFHDPRYcxBytgAuA3-25" value="Input Embedding" style="rounded=1;whiteSpace=wrap;html=1;" vertex="1" parent="1">
          <mxGeometry x="139.91" y="776" width="120" height="30" as="geometry" />
        </mxCell>
        <mxCell id="w3DRFHDPRYcxBytgAuA3-29" value="" style="edgeStyle=orthogonalEdgeStyle;rounded=0;orthogonalLoop=1;jettySize=auto;html=1;" edge="1" parent="1" source="w3DRFHDPRYcxBytgAuA3-28" target="w3DRFHDPRYcxBytgAuA3-25">
          <mxGeometry relative="1" as="geometry" />
        </mxCell>
        <mxCell id="w3DRFHDPRYcxBytgAuA3-28" value="Input" style="rounded=1;whiteSpace=wrap;html=1;" vertex="1" parent="1">
          <mxGeometry x="139.91" y="846" width="120" height="30" as="geometry" />
        </mxCell>
        <mxCell id="w3DRFHDPRYcxBytgAuA3-40" value="" style="edgeStyle=orthogonalEdgeStyle;rounded=0;orthogonalLoop=1;jettySize=auto;html=1;" edge="1" parent="1" source="w3DRFHDPRYcxBytgAuA3-30" target="w3DRFHDPRYcxBytgAuA3-38">
          <mxGeometry relative="1" as="geometry" />
        </mxCell>
        <mxCell id="w3DRFHDPRYcxBytgAuA3-30" value="Output" style="rounded=1;whiteSpace=wrap;html=1;" vertex="1" parent="1">
          <mxGeometry x="139.91" y="180" width="120" height="30" as="geometry" />
        </mxCell>
        <mxCell id="w3DRFHDPRYcxBytgAuA3-33" value="With the softmax layer, the linear output are mapped to a probability. So the sum of all outputs = 1" style="text;html=1;align=left;verticalAlign=middle;whiteSpace=wrap;rounded=0;strokeColor=default;dashed=1;dashPattern=1 1;" vertex="1" parent="1">
          <mxGeometry x="339.90999999999997" y="246" width="320" height="30" as="geometry" />
        </mxCell>
        <mxCell id="w3DRFHDPRYcxBytgAuA3-35" value="Every position in the (1,128) gets his own position vector, storing the information about the position." style="text;html=1;align=left;verticalAlign=middle;whiteSpace=wrap;rounded=0;strokeColor=default;dashed=1;dashPattern=1 1;" vertex="1" parent="1">
          <mxGeometry x="339.90999999999997" y="686" width="320" height="30" as="geometry" />
        </mxCell>
        <mxCell id="w3DRFHDPRYcxBytgAuA3-36" value="Linear activation function for classification (binary 0/1)" style="text;html=1;align=left;verticalAlign=middle;whiteSpace=wrap;rounded=0;strokeColor=default;dashed=1;dashPattern=1 1;" vertex="1" parent="1">
          <mxGeometry x="339.90999999999997" y="316" width="320" height="30" as="geometry" />
        </mxCell>
        <mxCell id="w3DRFHDPRYcxBytgAuA3-39" value="" style="edgeStyle=orthogonalEdgeStyle;rounded=0;orthogonalLoop=1;jettySize=auto;html=1;" edge="1" parent="1" source="w3DRFHDPRYcxBytgAuA3-37" target="w3DRFHDPRYcxBytgAuA3-38">
          <mxGeometry relative="1" as="geometry" />
        </mxCell>
        <mxCell id="w3DRFHDPRYcxBytgAuA3-37" value="Target" style="rounded=1;whiteSpace=wrap;html=1;" vertex="1" parent="1">
          <mxGeometry x="139.91" y="60" width="120" height="30" as="geometry" />
        </mxCell>
        <mxCell id="w3DRFHDPRYcxBytgAuA3-38" value="" style="verticalLabelPosition=bottom;shadow=0;dashed=0;align=center;html=1;verticalAlign=top;shape=mxgraph.electrical.abstract.delta;" vertex="1" parent="1">
          <mxGeometry x="184.91" y="120" width="30" height="30" as="geometry" />
        </mxCell>
        <mxCell id="w3DRFHDPRYcxBytgAuA3-43" value="" style="endArrow=none;dashed=1;html=1;rounded=0;entryX=-0.013;entryY=0.494;entryDx=0;entryDy=0;entryPerimeter=0;" edge="1" parent="1">
          <mxGeometry width="50" height="50" relative="1" as="geometry">
            <mxPoint x="220" y="135" as="sourcePoint" />
            <mxPoint x="335.75" y="134.81999999999994" as="targetPoint" />
          </mxGeometry>
        </mxCell>
        <mxCell id="w3DRFHDPRYcxBytgAuA3-60" value="Multi head attention. Matrix computed with Q,K,V for self attention." style="text;html=1;align=left;verticalAlign=middle;whiteSpace=wrap;rounded=0;strokeColor=default;dashed=1;dashPattern=1 1;" vertex="1" parent="1">
          <mxGeometry x="339.90999999999997" y="600" width="320" height="30" as="geometry" />
        </mxCell>
        <mxCell id="w3DRFHDPRYcxBytgAuA3-61" value="Add residual connections and normalize the layer" style="text;html=1;align=left;verticalAlign=middle;whiteSpace=wrap;rounded=0;strokeColor=default;dashed=1;dashPattern=1 1;" vertex="1" parent="1">
          <mxGeometry x="339.90999999999997" y="385" width="320" height="30" as="geometry" />
        </mxCell>
        <mxCell id="w3DRFHDPRYcxBytgAuA3-62" value="Add residual connections and normalize the layer" style="text;html=1;align=left;verticalAlign=middle;whiteSpace=wrap;rounded=0;strokeColor=default;dashed=1;dashPattern=1 1;" vertex="1" parent="1">
          <mxGeometry x="339.90999999999997" y="530" width="320" height="30" as="geometry" />
        </mxCell>
        <mxCell id="w3DRFHDPRYcxBytgAuA3-63" value="Feed forward neural network to compute output layer" style="text;html=1;align=left;verticalAlign=middle;whiteSpace=wrap;rounded=0;strokeColor=default;dashed=1;dashPattern=1 1;" vertex="1" parent="1">
          <mxGeometry x="339.90999999999997" y="459" width="320" height="30" as="geometry" />
        </mxCell>
        <mxCell id="w3DRFHDPRYcxBytgAuA3-64" value="Map each token to it&#39;s position in the vocabulary. In this case WordPiece, with ~ 30k items. A sentence becomes a vector of size 1x128 (H value)." style="text;html=1;align=left;verticalAlign=middle;whiteSpace=wrap;rounded=0;strokeColor=default;dashed=1;dashPattern=1 1;" vertex="1" parent="1">
          <mxGeometry x="339.91" y="770" width="320" height="50" as="geometry" />
        </mxCell>
        <mxCell id="w3DRFHDPRYcxBytgAuA3-65" value="In this case a movie review." style="text;html=1;align=left;verticalAlign=middle;whiteSpace=wrap;rounded=0;strokeColor=default;dashed=1;dashPattern=1 1;" vertex="1" parent="1">
          <mxGeometry x="339.90999999999997" y="844" width="320" height="30" as="geometry" />
        </mxCell>
        <mxCell id="w3DRFHDPRYcxBytgAuA3-66" value="The class with higher probability is chosen as the output" style="text;html=1;align=left;verticalAlign=middle;whiteSpace=wrap;rounded=0;strokeColor=default;dashed=1;dashPattern=1 1;" vertex="1" parent="1">
          <mxGeometry x="339.90999999999997" y="180" width="320" height="30" as="geometry" />
        </mxCell>
        <mxCell id="w3DRFHDPRYcxBytgAuA3-67" value="The ground truth class label" style="text;html=1;align=left;verticalAlign=middle;whiteSpace=wrap;rounded=0;strokeColor=default;dashed=1;dashPattern=1 1;" vertex="1" parent="1">
          <mxGeometry x="339.90999999999997" y="60" width="320" height="30" as="geometry" />
        </mxCell>
        <mxCell id="w3DRFHDPRYcxBytgAuA3-68" value="Compute the loss and update the weights through back propagation" style="text;html=1;align=left;verticalAlign=middle;whiteSpace=wrap;rounded=0;strokeColor=default;dashed=1;dashPattern=1 1;" vertex="1" parent="1">
          <mxGeometry x="339.90999999999997" y="120" width="320" height="30" as="geometry" />
        </mxCell>
        <mxCell id="w3DRFHDPRYcxBytgAuA3-69" value="Transformer-block" style="text;html=1;align=left;verticalAlign=middle;whiteSpace=wrap;rounded=0;strokeColor=#6c8ebf;dashed=1;dashPattern=1 1;fillColor=#dae8fc;" vertex="1" parent="1">
          <mxGeometry x="-50" y="490" width="110" height="30" as="geometry" />
        </mxCell>
        <mxCell id="w3DRFHDPRYcxBytgAuA3-80" value="Untitled Layer" parent="0" />
        <mxCell id="w3DRFHDPRYcxBytgAuA3-81" value="" style="edgeStyle=orthogonalEdgeStyle;rounded=0;orthogonalLoop=1;jettySize=auto;html=1;" edge="1" parent="w3DRFHDPRYcxBytgAuA3-80" source="w3DRFHDPRYcxBytgAuA3-82" target="w3DRFHDPRYcxBytgAuA3-84">
          <mxGeometry relative="1" as="geometry" />
        </mxCell>
        <mxCell id="w3DRFHDPRYcxBytgAuA3-82" value="Input" style="rounded=0;whiteSpace=wrap;html=1;" vertex="1" parent="w3DRFHDPRYcxBytgAuA3-80">
          <mxGeometry x="790" y="380" width="50" height="230" as="geometry" />
        </mxCell>
        <mxCell id="w3DRFHDPRYcxBytgAuA3-83" value="" style="edgeStyle=orthogonalEdgeStyle;rounded=0;orthogonalLoop=1;jettySize=auto;html=1;" edge="1" parent="w3DRFHDPRYcxBytgAuA3-80" source="w3DRFHDPRYcxBytgAuA3-84" target="w3DRFHDPRYcxBytgAuA3-85">
          <mxGeometry relative="1" as="geometry" />
        </mxCell>
        <mxCell id="w3DRFHDPRYcxBytgAuA3-84" value="Hidden&lt;div&gt;Layer&lt;/div&gt;" style="rounded=0;whiteSpace=wrap;html=1;" vertex="1" parent="w3DRFHDPRYcxBytgAuA3-80">
          <mxGeometry x="890" y="380" width="50" height="230" as="geometry" />
        </mxCell>
        <mxCell id="w3DRFHDPRYcxBytgAuA3-89" value="" style="edgeStyle=orthogonalEdgeStyle;rounded=0;orthogonalLoop=1;jettySize=auto;html=1;" edge="1" parent="w3DRFHDPRYcxBytgAuA3-80" source="w3DRFHDPRYcxBytgAuA3-85" target="w3DRFHDPRYcxBytgAuA3-88">
          <mxGeometry relative="1" as="geometry" />
        </mxCell>
        <mxCell id="w3DRFHDPRYcxBytgAuA3-85" value="Hidden&lt;div&gt;Layer&lt;/div&gt;" style="rounded=0;whiteSpace=wrap;html=1;" vertex="1" parent="w3DRFHDPRYcxBytgAuA3-80">
          <mxGeometry x="990" y="380" width="50" height="230" as="geometry" />
        </mxCell>
      </root>
    </mxGraphModel>
  </diagram>
</mxfile>
